inDegrees=yes
name=ik_S47_A04_T02
DataType=double
version=3
OpenSimVersion=4.3-2021-08-27-4bc7ad9
endheader
time	pelvis_tilt	pelvis_list	pelvis_rotation	pelvis_tx	pelvis_ty	pelvis_tz	hip_flexion_r	hip_adduction_r	hip_rotation_r	knee_angle_r	knee_angle_r_beta	ankle_angle_r	subtalar_angle_r	mtp_angle_r	hip_flexion_l	hip_adduction_l	hip_rotation_l	knee_angle_l	knee_angle_l_beta	ankle_angle_l	subtalar_angle_l	mtp_angle_l	lumbar_extension	lumbar_bending	lumbar_rotation	arm_flex_r	arm_add_r	arm_rot_r	elbow_flex_r	pro_sup_r	wrist_flex_r	wrist_dev_r	arm_flex_l	arm_add_l	arm_rot_l	elbow_flex_l	pro_sup_l	wrist_flex_l	wrist_dev_l
9.979999999999876	3.520301342541747	1.393383997212559	31.29776067172773	0	0.9399999999999999	0	-4.224495770443401	-11.11062881759252	-4.655901511951957	1.33123382328078	0.02323441333016195	0	0	0	-4.479256140503682	-10.67988866324455	-6.32478107864268	-1.182717941896412	-0.02064232220850337	0	0	0	0	0	0	30.2823094561242	-30.2823094561242	4.310592928808932	76.39519472386348	85.68940731344067	0	0	30.2823094561242	-30.2823094561242	4.310592928808932	76.39519472386348	85.6894073133129	0	0
9.999999999999876	3.226975211991692	1.195269315084254	31.3765092296258	0	0.9399999999999999	0	-4.429692085489887	-11.01614454886859	-4.604483497022066	0.7262553131507269	0.01267554642458266	0	0	0	-4.429939871632272	-10.50815360448738	-5.809958694520054	-1.600247089176227	-0.02792958055158047	0	0	0	0	0	0	30.28483863917898	-30.28483863917898	4.310828461554116	76.39815840567407	85.68917178070762	0	0	30.28483863917898	-30.28483863917898	4.310828461554116	76.39815840567407	85.68917178057987	0	0
10.01999999999988	2.973375950635731	1.039658509127397	31.39219210978283	0	0.9399999999999999	0	-4.557314465450058	-10.88448342699702	-4.255196824797544	0.1425457048855649	0.002487891884829275	0	0	0	-4.384082715040759	-10.35524214331901	-5.399764027789805	-1.85186893727311	-0.0323212102708241	0	0	0	0	0	0	30.28778207670935	-30.28778207670935	4.311102237582287	76.40160318001033	85.68889800469353	0	0	30.28778207670935	-30.28778207670935	4.311102237582287	76.40160318001033	85.6888980045658	0	0
10.03999999999987	2.677012570896844	0.9126936296285681	31.45165055084871	0	0.9399999999999999	0	-4.56968512339899	-10.80929434235826	-4.122836351364634	-0.2744214959967528	-0.004789558643391775	0	0	0	-4.329521238867176	-10.17606458884805	-5.171035919291102	-2.154166136439685	-0.03759729171583791	0	0	0	0	0	0	30.29127166583398	-30.29127166583398	4.31142710485156	76.40569087219545	85.68857313744087	0	0	30.29127166583398	-30.29127166583398	4.31142710485156	76.40569087219545	85.68857313731326	0	0
10.05999999999987	2.288137680605893	0.6765475917521785	31.41675974608467	0	0.9399999999999999	0	-4.443871822111705	-10.77254039783696	-4.13637256614988	-0.5669977415903386	-0.009895977442123397	0	0	0	-4.095825518867562	-10.08444888514046	-5.107054249545254	-2.265752646153339	-0.03954484371114979	0	0	0	0	0	0	30.29272017687879	-30.29272017687879	4.311561458844478	76.40738124497567	85.68843878345483	0	0	30.29272017687879	-30.29272017687879	4.311561458844478	76.40738124497567	85.6884387833272	0	0
10.07999999999987	1.963968190704706	0.4832577203425004	31.39523223101726	0	0.9399999999999999	0	-4.465023988937114	-10.73443152739287	-4.112626871021307	-1.113827130466046	-0.01943995072467294	0	0	0	-3.984192201298971	-9.999542846249282	-5.142929818994093	-2.535652373867386	-0.04425548260999611	0	0	0	0	0	0	30.29551548259591	-30.29551548259591	4.311821421367497	76.41065215755006	85.68817882094513	0	0	30.29551548259591	-30.29551548259591	4.311821421367497	76.41065215755006	85.68817882081754	0	0
10.09999999999987	1.71093502603641	0.3779801374671692	31.39267265434726	0	0.9399999999999999	0	-4.548558207400648	-10.71672676691191	-4.137535041704792	-1.530820987974035	-0.02671786649877943	0	0	0	-3.990153933458758	-9.825930736110436	-5.106216122454054	-2.769197589656458	-0.04833161557779606	0	0	0	0	0	0	30.29842820045931	-30.29842820045931	4.31209247565575	76.41406266426894	85.68790776667068	0	0	30.29842820045931	-30.29842820045931	4.31209247565575	76.41406266426894	85.68790776654315	0	0
10.11999999999987	1.431280871579091	0.3086148443241918	31.43278501039237	0	0.9399999999999999	0	-4.542790675923533	-10.78016942682627	-4.183685454063249	-1.781002465476745	-0.03108435700870583	0	0	0	-3.920031074499177	-9.658192482047118	-4.965816223628655	-2.959353708158915	-0.05165046593847645	0	0	0	0	0	0	30.30003112203473	-30.30003112203473	4.312241183784193	76.41593362051643	85.68775905854983	0	0	30.30003112203473	-30.30003112203473	4.312241183784193	76.41593362051643	85.6877590584223	0	0
10.13999999999987	1.077432974896448	0.06776951350790655	31.34128088020617	0	0.9399999999999999	0	-4.342182484950871	-10.73175154577144	-4.075498567122744	-2.069478731836892	-0.03611921767055055	0	0	0	-3.710468742445249	-9.555954413404814	-4.866914513511877	-3.167681841424013	-0.05528647778848592	0	0	0	0	0	0	30.30144262734888	-30.30144262734888	4.312372028483499	76.41757979331591	85.68762821385724	0	0	30.30144262734888	-30.30144262734888	4.312372028483499	76.41757979331591	85.68762821372971	0	0
10.15999999999987	0.7878823905295067	-0.1098346484534084	31.2423893913648	0	0.9399999999999999	0	-4.198169681012034	-10.72603186312732	-3.961629908146724	-2.299792733677966	-0.04013895531612158	0	0	0	-3.561466251472415	-9.435072008596867	-4.75091514789227	-3.399149400252242	-0.0593263488015922	0	0	0	0	0	0	30.30291007066823	-30.30291007066823	4.31250819933144	76.41929301337983	85.68749204301626	0	0	30.30291007066823	-30.30291007066823	4.31250819933144	76.41929301337983	85.68749204288876	0	0
